<?xml version="1.0" encoding="UTF-8"?>
<!DOCTYPE svg PUBLIC "-//W3C//DTD SVG 1.1//EN" "http://www.w3.org/Graphics/SVG/1.1/DTD/svg11.dtd">
<svg xmlns="http://www.w3.org/2000/svg" version="1.1" width="500px" height="500px" style="shape-rendering:geometricPrecision; text-rendering:geometricPrecision; image-rendering:optimizeQuality; fill-rule:evenodd; clip-rule:evenodd" xmlns:xlink="http://www.w3.org/1999/xlink">
<g><path style="opacity:0.879" fill="#000000" d="M 164.5,220.5 C 169.544,220.173 174.544,220.506 179.5,221.5C 184.099,234.129 188.599,246.795 193,259.5C 196.187,251.611 199.187,243.611 202,235.5C 207.114,234.196 212.281,234.196 217.5,235.5C 214.167,243.833 210.833,252.167 207.5,260.5C 214.803,261.497 222.137,261.831 229.5,261.5C 229.5,263.5 229.5,265.5 229.5,267.5C 224.833,267.5 220.167,267.5 215.5,267.5C 215.5,269.5 215.5,271.5 215.5,273.5C 219.5,273.5 223.5,273.5 227.5,273.5C 227.5,275.5 227.5,277.5 227.5,279.5C 223.5,279.5 219.5,279.5 215.5,279.5C 215.5,281.833 215.5,284.167 215.5,286.5C 220.167,286.5 224.833,286.5 229.5,286.5C 229.5,288.5 229.5,290.5 229.5,292.5C 222.167,292.5 214.833,292.5 207.5,292.5C 207.666,282.494 207.5,272.494 207,262.5C 203.196,272.912 199.196,283.245 195,293.5C 193.817,294.731 192.651,294.731 191.5,293.5C 181.894,269.345 172.894,245.012 164.5,220.5 Z"/></g>
<g><path style="opacity:0.865" fill="#000000" d="M 232.5,261.5 C 234.833,261.5 237.167,261.5 239.5,261.5C 239.5,269.833 239.5,278.167 239.5,286.5C 243.833,286.5 248.167,286.5 252.5,286.5C 252.5,288.5 252.5,290.5 252.5,292.5C 245.833,292.5 239.167,292.5 232.5,292.5C 232.5,282.167 232.5,271.833 232.5,261.5 Z"/></g>
<g><path style="opacity:0.825" fill="#000000" d="M 253.5,261.5 C 256.247,261.187 258.914,261.52 261.5,262.5C 263.666,269.161 265.832,275.828 268,282.5C 270,275.833 272,269.167 274,262.5C 276.795,261.217 279.628,261.217 282.5,262.5C 278.902,272.128 275.402,281.795 272,291.5C 269.281,292.444 266.448,292.777 263.5,292.5C 260.454,282.074 257.12,271.741 253.5,261.5 Z"/></g>
<g><path style="opacity:0.842" fill="#000000" d="M 284.5,261.5 C 291.5,261.5 298.5,261.5 305.5,261.5C 305.5,263.5 305.5,265.5 305.5,267.5C 300.833,267.5 296.167,267.5 291.5,267.5C 291.5,269.5 291.5,271.5 291.5,273.5C 295.5,273.5 299.5,273.5 303.5,273.5C 303.5,275.5 303.5,277.5 303.5,279.5C 299.5,279.5 295.5,279.5 291.5,279.5C 291.5,281.833 291.5,284.167 291.5,286.5C 296.179,286.334 300.845,286.501 305.5,287C 306.406,288.699 306.739,290.533 306.5,292.5C 299.167,292.5 291.833,292.5 284.5,292.5C 284.5,282.167 284.5,271.833 284.5,261.5 Z"/></g>
<g><path style="opacity:0.851" fill="#000000" d="M 307.5,261.5 C 316.167,261.5 324.833,261.5 333.5,261.5C 333.5,263.5 333.5,265.5 333.5,267.5C 330.167,267.5 326.833,267.5 323.5,267.5C 323.5,275.833 323.5,284.167 323.5,292.5C 321.167,292.5 318.833,292.5 316.5,292.5C 316.5,284.167 316.5,275.833 316.5,267.5C 313.5,267.5 310.5,267.5 307.5,267.5C 307.5,265.5 307.5,263.5 307.5,261.5 Z"/></g>
<g><path style="opacity:0.707" fill="#000000" d="M 332.5,285.5 C 335.504,285.335 337.504,286.668 338.5,289.5C 335.613,294.711 332.946,294.711 330.5,289.5C 330.752,287.927 331.418,286.594 332.5,285.5 Z"/></g>
</svg>
